<mxfile host="app.diagrams.net" modified="2020-08-28T11:29:14.014Z" agent="5.0 (Windows NT 10.0; Win64; x64) AppleWebKit/537.36 (KHTML, like Gecko) Chrome/85.0.4183.83 Safari/537.36" etag="h-_lKsFRhlxzpf5ygbyg" version="13.6.5" type="github">
  <diagram id="wfnMOMf53L3xdwMcOCLL" name="Page-1">
    <mxGraphModel dx="1481" dy="1986" grid="1" gridSize="10" guides="1" tooltips="1" connect="1" arrows="1" fold="1" page="1" pageScale="1" pageWidth="850" pageHeight="1100" math="0" shadow="0">
      <root>
        <mxCell id="0" />
        <mxCell id="1" parent="0" />
        <mxCell id="PUlFP6EYt6yUDdwabon2-1" value="" style="rounded=0;whiteSpace=wrap;html=1;" vertex="1" parent="1">
          <mxGeometry x="30" y="-1010" width="220" height="250" as="geometry" />
        </mxCell>
        <mxCell id="PUlFP6EYt6yUDdwabon2-2" value="Product Page" style="text;html=1;fillColor=none;align=center;verticalAlign=middle;whiteSpace=wrap;rounded=0;strokeWidth=1;fontSize=16;" vertex="1" parent="1">
          <mxGeometry x="10" y="-1040" width="140" height="20" as="geometry" />
        </mxCell>
        <mxCell id="PUlFP6EYt6yUDdwabon2-3" value="Head&lt;br&gt;css&lt;br&gt;font" style="text;html=1;strokeColor=none;fillColor=none;align=center;verticalAlign=middle;whiteSpace=wrap;rounded=0;" vertex="1" parent="1">
          <mxGeometry x="50" y="-1000" width="40" height="60" as="geometry" />
        </mxCell>
        <mxCell id="PUlFP6EYt6yUDdwabon2-4" value="Body" style="text;html=1;strokeColor=none;fillColor=none;align=center;verticalAlign=middle;whiteSpace=wrap;rounded=0;" vertex="1" parent="1">
          <mxGeometry x="40" y="-920" width="40" height="40" as="geometry" />
        </mxCell>
        <mxCell id="PUlFP6EYt6yUDdwabon2-7" value="" style="endArrow=none;dashed=1;html=1;" edge="1" parent="1">
          <mxGeometry width="50" height="50" relative="1" as="geometry">
            <mxPoint x="50" y="-880" as="sourcePoint" />
            <mxPoint x="130" y="-880" as="targetPoint" />
          </mxGeometry>
        </mxCell>
        <mxCell id="PUlFP6EYt6yUDdwabon2-8" value="" style="endArrow=none;dashed=1;html=1;" edge="1" parent="1">
          <mxGeometry width="50" height="50" relative="1" as="geometry">
            <mxPoint x="60" y="-870" as="sourcePoint" />
            <mxPoint x="140" y="-870" as="targetPoint" />
            <Array as="points">
              <mxPoint x="100" y="-870" />
            </Array>
          </mxGeometry>
        </mxCell>
        <mxCell id="PUlFP6EYt6yUDdwabon2-9" value="" style="endArrow=none;dashed=1;html=1;" edge="1" parent="1">
          <mxGeometry width="50" height="50" relative="1" as="geometry">
            <mxPoint x="70" y="-860" as="sourcePoint" />
            <mxPoint x="150" y="-860" as="targetPoint" />
            <Array as="points">
              <mxPoint x="110" y="-860" />
            </Array>
          </mxGeometry>
        </mxCell>
        <mxCell id="PUlFP6EYt6yUDdwabon2-10" value="" style="endArrow=none;dashed=1;html=1;" edge="1" parent="1">
          <mxGeometry width="50" height="50" relative="1" as="geometry">
            <mxPoint x="80" y="-850" as="sourcePoint" />
            <mxPoint x="160" y="-850" as="targetPoint" />
            <Array as="points">
              <mxPoint x="120" y="-850" />
            </Array>
          </mxGeometry>
        </mxCell>
        <mxCell id="PUlFP6EYt6yUDdwabon2-11" value="" style="endArrow=none;dashed=1;html=1;" edge="1" parent="1">
          <mxGeometry width="50" height="50" relative="1" as="geometry">
            <mxPoint x="90" y="-840" as="sourcePoint" />
            <mxPoint x="170" y="-840" as="targetPoint" />
            <Array as="points">
              <mxPoint x="130" y="-840" />
            </Array>
          </mxGeometry>
        </mxCell>
        <mxCell id="PUlFP6EYt6yUDdwabon2-12" value="script" style="text;html=1;strokeColor=none;fillColor=none;align=center;verticalAlign=middle;whiteSpace=wrap;rounded=0;" vertex="1" parent="1">
          <mxGeometry x="40" y="-820" width="40" height="40" as="geometry" />
        </mxCell>
        <mxCell id="PUlFP6EYt6yUDdwabon2-19" value="" style="rounded=0;whiteSpace=wrap;html=1;" vertex="1" parent="1">
          <mxGeometry x="300" y="-1010" width="220" height="250" as="geometry" />
        </mxCell>
        <mxCell id="PUlFP6EYt6yUDdwabon2-20" value="Index Page" style="text;html=1;fillColor=none;align=center;verticalAlign=middle;whiteSpace=wrap;rounded=0;strokeWidth=1;fontSize=16;" vertex="1" parent="1">
          <mxGeometry x="280" y="-1040" width="140" height="20" as="geometry" />
        </mxCell>
        <mxCell id="PUlFP6EYt6yUDdwabon2-21" value="Head&lt;br&gt;css&lt;br&gt;font" style="text;html=1;strokeColor=none;fillColor=none;align=center;verticalAlign=middle;whiteSpace=wrap;rounded=0;" vertex="1" parent="1">
          <mxGeometry x="320" y="-1000" width="40" height="60" as="geometry" />
        </mxCell>
        <mxCell id="PUlFP6EYt6yUDdwabon2-22" value="Body" style="text;html=1;strokeColor=none;fillColor=none;align=center;verticalAlign=middle;whiteSpace=wrap;rounded=0;" vertex="1" parent="1">
          <mxGeometry x="310" y="-920" width="40" height="40" as="geometry" />
        </mxCell>
        <mxCell id="PUlFP6EYt6yUDdwabon2-23" value="" style="endArrow=none;dashed=1;html=1;" edge="1" parent="1">
          <mxGeometry width="50" height="50" relative="1" as="geometry">
            <mxPoint x="320" y="-880" as="sourcePoint" />
            <mxPoint x="400" y="-880" as="targetPoint" />
          </mxGeometry>
        </mxCell>
        <mxCell id="PUlFP6EYt6yUDdwabon2-24" value="" style="endArrow=none;dashed=1;html=1;" edge="1" parent="1">
          <mxGeometry width="50" height="50" relative="1" as="geometry">
            <mxPoint x="330" y="-870" as="sourcePoint" />
            <mxPoint x="410" y="-870" as="targetPoint" />
            <Array as="points">
              <mxPoint x="370" y="-870" />
            </Array>
          </mxGeometry>
        </mxCell>
        <mxCell id="PUlFP6EYt6yUDdwabon2-25" value="" style="endArrow=none;dashed=1;html=1;" edge="1" parent="1">
          <mxGeometry width="50" height="50" relative="1" as="geometry">
            <mxPoint x="340" y="-860" as="sourcePoint" />
            <mxPoint x="420" y="-860" as="targetPoint" />
            <Array as="points">
              <mxPoint x="380" y="-860" />
            </Array>
          </mxGeometry>
        </mxCell>
        <mxCell id="PUlFP6EYt6yUDdwabon2-26" value="" style="endArrow=none;dashed=1;html=1;" edge="1" parent="1">
          <mxGeometry width="50" height="50" relative="1" as="geometry">
            <mxPoint x="330" y="-850" as="sourcePoint" />
            <mxPoint x="410" y="-850" as="targetPoint" />
            <Array as="points">
              <mxPoint x="370" y="-850" />
            </Array>
          </mxGeometry>
        </mxCell>
        <mxCell id="PUlFP6EYt6yUDdwabon2-27" value="" style="endArrow=none;dashed=1;html=1;" edge="1" parent="1">
          <mxGeometry width="50" height="50" relative="1" as="geometry">
            <mxPoint x="320" y="-840" as="sourcePoint" />
            <mxPoint x="400" y="-840" as="targetPoint" />
            <Array as="points">
              <mxPoint x="360" y="-840" />
            </Array>
          </mxGeometry>
        </mxCell>
        <mxCell id="PUlFP6EYt6yUDdwabon2-28" value="script" style="text;html=1;strokeColor=none;fillColor=none;align=center;verticalAlign=middle;whiteSpace=wrap;rounded=0;" vertex="1" parent="1">
          <mxGeometry x="310" y="-820" width="40" height="40" as="geometry" />
        </mxCell>
        <mxCell id="PUlFP6EYt6yUDdwabon2-29" value="" style="rounded=0;whiteSpace=wrap;html=1;" vertex="1" parent="1">
          <mxGeometry x="560" y="-1010" width="220" height="250" as="geometry" />
        </mxCell>
        <mxCell id="PUlFP6EYt6yUDdwabon2-30" value="Blog Page" style="text;html=1;fillColor=none;align=center;verticalAlign=middle;whiteSpace=wrap;rounded=0;strokeWidth=1;fontSize=16;" vertex="1" parent="1">
          <mxGeometry x="540" y="-1040" width="140" height="20" as="geometry" />
        </mxCell>
        <mxCell id="PUlFP6EYt6yUDdwabon2-31" value="Head&lt;br&gt;css&lt;br&gt;font" style="text;html=1;strokeColor=none;fillColor=none;align=center;verticalAlign=middle;whiteSpace=wrap;rounded=0;" vertex="1" parent="1">
          <mxGeometry x="580" y="-1000" width="40" height="60" as="geometry" />
        </mxCell>
        <mxCell id="PUlFP6EYt6yUDdwabon2-32" value="Body" style="text;html=1;strokeColor=none;fillColor=none;align=center;verticalAlign=middle;whiteSpace=wrap;rounded=0;" vertex="1" parent="1">
          <mxGeometry x="570" y="-920" width="40" height="40" as="geometry" />
        </mxCell>
        <mxCell id="PUlFP6EYt6yUDdwabon2-33" value="" style="endArrow=none;dashed=1;html=1;" edge="1" parent="1">
          <mxGeometry width="50" height="50" relative="1" as="geometry">
            <mxPoint x="580" y="-880" as="sourcePoint" />
            <mxPoint x="660" y="-880" as="targetPoint" />
          </mxGeometry>
        </mxCell>
        <mxCell id="PUlFP6EYt6yUDdwabon2-34" value="" style="endArrow=none;dashed=1;html=1;" edge="1" parent="1">
          <mxGeometry width="50" height="50" relative="1" as="geometry">
            <mxPoint x="580" y="-870" as="sourcePoint" />
            <mxPoint x="660" y="-870" as="targetPoint" />
            <Array as="points">
              <mxPoint x="620" y="-870" />
            </Array>
          </mxGeometry>
        </mxCell>
        <mxCell id="PUlFP6EYt6yUDdwabon2-35" value="" style="endArrow=none;dashed=1;html=1;" edge="1" parent="1">
          <mxGeometry width="50" height="50" relative="1" as="geometry">
            <mxPoint x="580" y="-860" as="sourcePoint" />
            <mxPoint x="660" y="-860" as="targetPoint" />
            <Array as="points">
              <mxPoint x="620" y="-860" />
            </Array>
          </mxGeometry>
        </mxCell>
        <mxCell id="PUlFP6EYt6yUDdwabon2-36" value="" style="endArrow=none;dashed=1;html=1;" edge="1" parent="1">
          <mxGeometry width="50" height="50" relative="1" as="geometry">
            <mxPoint x="590" y="-850" as="sourcePoint" />
            <mxPoint x="670" y="-850" as="targetPoint" />
            <Array as="points">
              <mxPoint x="630" y="-850" />
            </Array>
          </mxGeometry>
        </mxCell>
        <mxCell id="PUlFP6EYt6yUDdwabon2-37" value="" style="endArrow=none;dashed=1;html=1;" edge="1" parent="1">
          <mxGeometry width="50" height="50" relative="1" as="geometry">
            <mxPoint x="580" y="-840" as="sourcePoint" />
            <mxPoint x="660" y="-840" as="targetPoint" />
            <Array as="points">
              <mxPoint x="620" y="-840" />
            </Array>
          </mxGeometry>
        </mxCell>
        <mxCell id="PUlFP6EYt6yUDdwabon2-38" value="script" style="text;html=1;strokeColor=none;fillColor=none;align=center;verticalAlign=middle;whiteSpace=wrap;rounded=0;" vertex="1" parent="1">
          <mxGeometry x="570" y="-820" width="40" height="40" as="geometry" />
        </mxCell>
        <mxCell id="PUlFP6EYt6yUDdwabon2-41" value="" style="endArrow=none;html=1;fontSize=16;" edge="1" parent="1">
          <mxGeometry width="50" height="50" relative="1" as="geometry">
            <mxPoint x="400" y="-720" as="sourcePoint" />
            <mxPoint x="680" y="-720" as="targetPoint" />
          </mxGeometry>
        </mxCell>
        <mxCell id="PUlFP6EYt6yUDdwabon2-42" value="" style="endArrow=none;html=1;fontSize=16;" edge="1" parent="1">
          <mxGeometry width="50" height="50" relative="1" as="geometry">
            <mxPoint x="400" y="-720.0000000000001" as="sourcePoint" />
            <mxPoint x="400" y="-740" as="targetPoint" />
          </mxGeometry>
        </mxCell>
        <mxCell id="PUlFP6EYt6yUDdwabon2-43" value="" style="endArrow=none;html=1;fontSize=16;" edge="1" parent="1">
          <mxGeometry width="50" height="50" relative="1" as="geometry">
            <mxPoint x="680" y="-720.0000000000001" as="sourcePoint" />
            <mxPoint x="680" y="-740" as="targetPoint" />
          </mxGeometry>
        </mxCell>
        <mxCell id="PUlFP6EYt6yUDdwabon2-44" value="" style="endArrow=none;html=1;fontSize=16;" edge="1" parent="1">
          <mxGeometry width="50" height="50" relative="1" as="geometry">
            <mxPoint x="120" y="-720" as="sourcePoint" />
            <mxPoint x="400" y="-720" as="targetPoint" />
          </mxGeometry>
        </mxCell>
        <mxCell id="PUlFP6EYt6yUDdwabon2-45" value="" style="endArrow=none;html=1;fontSize=16;" edge="1" parent="1">
          <mxGeometry width="50" height="50" relative="1" as="geometry">
            <mxPoint x="120" y="-720" as="sourcePoint" />
            <mxPoint x="120" y="-740" as="targetPoint" />
          </mxGeometry>
        </mxCell>
        <mxCell id="PUlFP6EYt6yUDdwabon2-47" value="" style="endArrow=none;html=1;fontSize=16;" edge="1" parent="1">
          <mxGeometry width="50" height="50" relative="1" as="geometry">
            <mxPoint x="400" y="-660" as="sourcePoint" />
            <mxPoint x="400" y="-720" as="targetPoint" />
          </mxGeometry>
        </mxCell>
        <mxCell id="PUlFP6EYt6yUDdwabon2-49" value="" style="rounded=1;whiteSpace=wrap;html=1;strokeColor=#000000;strokeWidth=1;fontSize=16;arcSize=0;" vertex="1" parent="1">
          <mxGeometry x="170" y="-500" width="210" height="200" as="geometry" />
        </mxCell>
        <mxCell id="PUlFP6EYt6yUDdwabon2-50" value="Head&lt;br&gt;css&lt;br&gt;font" style="text;html=1;strokeColor=none;fillColor=none;align=center;verticalAlign=middle;whiteSpace=wrap;rounded=0;" vertex="1" parent="1">
          <mxGeometry x="190" y="-490" width="40" height="60" as="geometry" />
        </mxCell>
        <mxCell id="PUlFP6EYt6yUDdwabon2-51" value="Body" style="text;html=1;strokeColor=none;fillColor=none;align=center;verticalAlign=middle;whiteSpace=wrap;rounded=0;" vertex="1" parent="1">
          <mxGeometry x="190" y="-430" width="40" height="40" as="geometry" />
        </mxCell>
        <mxCell id="PUlFP6EYt6yUDdwabon2-52" value="script" style="text;html=1;strokeColor=none;fillColor=none;align=center;verticalAlign=middle;whiteSpace=wrap;rounded=0;" vertex="1" parent="1">
          <mxGeometry x="190" y="-350" width="40" height="40" as="geometry" />
        </mxCell>
        <mxCell id="PUlFP6EYt6yUDdwabon2-57" value="" style="shape=cross;whiteSpace=wrap;html=1;strokeColor=#000000;strokeWidth=1;fontSize=16;size=0.08;" vertex="1" parent="1">
          <mxGeometry x="425" y="-435" width="50" height="50" as="geometry" />
        </mxCell>
        <mxCell id="PUlFP6EYt6yUDdwabon2-63" value="" style="rounded=1;whiteSpace=wrap;html=1;strokeColor=#000000;strokeWidth=1;fontSize=16;" vertex="1" parent="1">
          <mxGeometry x="530" y="-640" width="130" height="130" as="geometry" />
        </mxCell>
        <mxCell id="PUlFP6EYt6yUDdwabon2-64" value="Product" style="text;html=1;strokeColor=none;fillColor=none;align=center;verticalAlign=middle;whiteSpace=wrap;rounded=0;fontSize=16;" vertex="1" parent="1">
          <mxGeometry x="670" y="-590" width="80" height="20" as="geometry" />
        </mxCell>
        <mxCell id="PUlFP6EYt6yUDdwabon2-66" value="" style="endArrow=none;dashed=1;html=1;fontSize=16;" edge="1" parent="1">
          <mxGeometry width="50" height="50" relative="1" as="geometry">
            <mxPoint x="540" y="-610" as="sourcePoint" />
            <mxPoint x="630" y="-610" as="targetPoint" />
          </mxGeometry>
        </mxCell>
        <mxCell id="PUlFP6EYt6yUDdwabon2-67" value="" style="endArrow=none;dashed=1;html=1;fontSize=16;" edge="1" parent="1">
          <mxGeometry width="50" height="50" relative="1" as="geometry">
            <mxPoint x="550" y="-600.0000000000002" as="sourcePoint" />
            <mxPoint x="640" y="-600.0000000000002" as="targetPoint" />
          </mxGeometry>
        </mxCell>
        <mxCell id="PUlFP6EYt6yUDdwabon2-68" value="" style="endArrow=none;dashed=1;html=1;fontSize=16;" edge="1" parent="1">
          <mxGeometry width="50" height="50" relative="1" as="geometry">
            <mxPoint x="560" y="-590.0000000000002" as="sourcePoint" />
            <mxPoint x="650" y="-590.0000000000002" as="targetPoint" />
          </mxGeometry>
        </mxCell>
        <mxCell id="PUlFP6EYt6yUDdwabon2-69" value="" style="endArrow=none;dashed=1;html=1;fontSize=16;" edge="1" parent="1">
          <mxGeometry width="50" height="50" relative="1" as="geometry">
            <mxPoint x="550" y="-575.5900000000003" as="sourcePoint" />
            <mxPoint x="640" y="-575.5900000000003" as="targetPoint" />
          </mxGeometry>
        </mxCell>
        <mxCell id="PUlFP6EYt6yUDdwabon2-70" value="" style="endArrow=none;dashed=1;html=1;fontSize=16;" edge="1" parent="1">
          <mxGeometry width="50" height="50" relative="1" as="geometry">
            <mxPoint x="560" y="-565.5900000000001" as="sourcePoint" />
            <mxPoint x="650" y="-565.5900000000001" as="targetPoint" />
          </mxGeometry>
        </mxCell>
        <mxCell id="PUlFP6EYt6yUDdwabon2-71" value="" style="endArrow=none;dashed=1;html=1;fontSize=16;" edge="1" parent="1">
          <mxGeometry width="50" height="50" relative="1" as="geometry">
            <mxPoint x="570" y="-555.5900000000001" as="sourcePoint" />
            <mxPoint x="660" y="-555.5900000000001" as="targetPoint" />
          </mxGeometry>
        </mxCell>
        <mxCell id="PUlFP6EYt6yUDdwabon2-72" value="" style="endArrow=none;dashed=1;html=1;fontSize=16;" edge="1" parent="1">
          <mxGeometry width="50" height="50" relative="1" as="geometry">
            <mxPoint x="560" y="-545.5900000000001" as="sourcePoint" />
            <mxPoint x="650" y="-545.5900000000001" as="targetPoint" />
          </mxGeometry>
        </mxCell>
        <mxCell id="PUlFP6EYt6yUDdwabon2-73" value="" style="endArrow=none;dashed=1;html=1;fontSize=16;" edge="1" parent="1">
          <mxGeometry width="50" height="50" relative="1" as="geometry">
            <mxPoint x="550" y="-535.5900000000001" as="sourcePoint" />
            <mxPoint x="640" y="-535.5900000000001" as="targetPoint" />
          </mxGeometry>
        </mxCell>
        <mxCell id="PUlFP6EYt6yUDdwabon2-74" value="" style="rounded=1;whiteSpace=wrap;html=1;strokeColor=#000000;strokeWidth=1;fontSize=16;" vertex="1" parent="1">
          <mxGeometry x="530" y="-470" width="130" height="130" as="geometry" />
        </mxCell>
        <mxCell id="PUlFP6EYt6yUDdwabon2-75" value="Index" style="text;html=1;strokeColor=none;fillColor=none;align=center;verticalAlign=middle;whiteSpace=wrap;rounded=0;fontSize=16;" vertex="1" parent="1">
          <mxGeometry x="670" y="-420" width="80" height="20" as="geometry" />
        </mxCell>
        <mxCell id="PUlFP6EYt6yUDdwabon2-76" value="" style="endArrow=none;dashed=1;html=1;fontSize=16;" edge="1" parent="1">
          <mxGeometry width="50" height="50" relative="1" as="geometry">
            <mxPoint x="540" y="-440.0000000000002" as="sourcePoint" />
            <mxPoint x="630" y="-440.0000000000002" as="targetPoint" />
          </mxGeometry>
        </mxCell>
        <mxCell id="PUlFP6EYt6yUDdwabon2-77" value="" style="endArrow=none;dashed=1;html=1;fontSize=16;" edge="1" parent="1">
          <mxGeometry width="50" height="50" relative="1" as="geometry">
            <mxPoint x="550" y="-430.0000000000002" as="sourcePoint" />
            <mxPoint x="640" y="-430.0000000000002" as="targetPoint" />
          </mxGeometry>
        </mxCell>
        <mxCell id="PUlFP6EYt6yUDdwabon2-78" value="" style="endArrow=none;dashed=1;html=1;fontSize=16;" edge="1" parent="1">
          <mxGeometry width="50" height="50" relative="1" as="geometry">
            <mxPoint x="560" y="-420.0000000000002" as="sourcePoint" />
            <mxPoint x="650" y="-420.0000000000002" as="targetPoint" />
          </mxGeometry>
        </mxCell>
        <mxCell id="PUlFP6EYt6yUDdwabon2-79" value="" style="endArrow=none;dashed=1;html=1;fontSize=16;" edge="1" parent="1">
          <mxGeometry width="50" height="50" relative="1" as="geometry">
            <mxPoint x="550" y="-405.59000000000015" as="sourcePoint" />
            <mxPoint x="640" y="-405.59000000000015" as="targetPoint" />
          </mxGeometry>
        </mxCell>
        <mxCell id="PUlFP6EYt6yUDdwabon2-80" value="" style="endArrow=none;dashed=1;html=1;fontSize=16;" edge="1" parent="1">
          <mxGeometry width="50" height="50" relative="1" as="geometry">
            <mxPoint x="560" y="-395.59000000000015" as="sourcePoint" />
            <mxPoint x="650" y="-395.59000000000015" as="targetPoint" />
          </mxGeometry>
        </mxCell>
        <mxCell id="PUlFP6EYt6yUDdwabon2-81" value="" style="endArrow=none;dashed=1;html=1;fontSize=16;" edge="1" parent="1">
          <mxGeometry width="50" height="50" relative="1" as="geometry">
            <mxPoint x="570" y="-385.59000000000015" as="sourcePoint" />
            <mxPoint x="660" y="-385.59000000000015" as="targetPoint" />
          </mxGeometry>
        </mxCell>
        <mxCell id="PUlFP6EYt6yUDdwabon2-82" value="" style="endArrow=none;dashed=1;html=1;fontSize=16;" edge="1" parent="1">
          <mxGeometry width="50" height="50" relative="1" as="geometry">
            <mxPoint x="560" y="-375.59000000000015" as="sourcePoint" />
            <mxPoint x="650" y="-375.59000000000015" as="targetPoint" />
          </mxGeometry>
        </mxCell>
        <mxCell id="PUlFP6EYt6yUDdwabon2-83" value="" style="endArrow=none;dashed=1;html=1;fontSize=16;" edge="1" parent="1">
          <mxGeometry width="50" height="50" relative="1" as="geometry">
            <mxPoint x="550" y="-365.59000000000015" as="sourcePoint" />
            <mxPoint x="640" y="-365.59000000000015" as="targetPoint" />
          </mxGeometry>
        </mxCell>
        <mxCell id="PUlFP6EYt6yUDdwabon2-84" value="" style="rounded=1;whiteSpace=wrap;html=1;strokeColor=#000000;strokeWidth=1;fontSize=16;" vertex="1" parent="1">
          <mxGeometry x="530" y="-290" width="130" height="130" as="geometry" />
        </mxCell>
        <mxCell id="PUlFP6EYt6yUDdwabon2-85" value="Blog" style="text;html=1;strokeColor=none;fillColor=none;align=center;verticalAlign=middle;whiteSpace=wrap;rounded=0;fontSize=16;" vertex="1" parent="1">
          <mxGeometry x="670" y="-240" width="80" height="20" as="geometry" />
        </mxCell>
        <mxCell id="PUlFP6EYt6yUDdwabon2-86" value="" style="endArrow=none;dashed=1;html=1;fontSize=16;" edge="1" parent="1">
          <mxGeometry width="50" height="50" relative="1" as="geometry">
            <mxPoint x="540" y="-260.0000000000002" as="sourcePoint" />
            <mxPoint x="630" y="-260.0000000000002" as="targetPoint" />
          </mxGeometry>
        </mxCell>
        <mxCell id="PUlFP6EYt6yUDdwabon2-87" value="" style="endArrow=none;dashed=1;html=1;fontSize=16;" edge="1" parent="1">
          <mxGeometry width="50" height="50" relative="1" as="geometry">
            <mxPoint x="550" y="-250.00000000000023" as="sourcePoint" />
            <mxPoint x="640" y="-250.00000000000023" as="targetPoint" />
          </mxGeometry>
        </mxCell>
        <mxCell id="PUlFP6EYt6yUDdwabon2-88" value="" style="endArrow=none;dashed=1;html=1;fontSize=16;" edge="1" parent="1">
          <mxGeometry width="50" height="50" relative="1" as="geometry">
            <mxPoint x="560" y="-240.00000000000023" as="sourcePoint" />
            <mxPoint x="650" y="-240.00000000000023" as="targetPoint" />
          </mxGeometry>
        </mxCell>
        <mxCell id="PUlFP6EYt6yUDdwabon2-89" value="" style="endArrow=none;dashed=1;html=1;fontSize=16;" edge="1" parent="1">
          <mxGeometry width="50" height="50" relative="1" as="geometry">
            <mxPoint x="550" y="-225.59000000000015" as="sourcePoint" />
            <mxPoint x="640" y="-225.59000000000015" as="targetPoint" />
          </mxGeometry>
        </mxCell>
        <mxCell id="PUlFP6EYt6yUDdwabon2-90" value="" style="endArrow=none;dashed=1;html=1;fontSize=16;" edge="1" parent="1">
          <mxGeometry width="50" height="50" relative="1" as="geometry">
            <mxPoint x="560" y="-215.59000000000015" as="sourcePoint" />
            <mxPoint x="650" y="-215.59000000000015" as="targetPoint" />
          </mxGeometry>
        </mxCell>
        <mxCell id="PUlFP6EYt6yUDdwabon2-91" value="" style="endArrow=none;dashed=1;html=1;fontSize=16;" edge="1" parent="1">
          <mxGeometry width="50" height="50" relative="1" as="geometry">
            <mxPoint x="570" y="-205.59000000000015" as="sourcePoint" />
            <mxPoint x="660" y="-205.59000000000015" as="targetPoint" />
          </mxGeometry>
        </mxCell>
        <mxCell id="PUlFP6EYt6yUDdwabon2-92" value="" style="endArrow=none;dashed=1;html=1;fontSize=16;" edge="1" parent="1">
          <mxGeometry width="50" height="50" relative="1" as="geometry">
            <mxPoint x="560" y="-195.59000000000015" as="sourcePoint" />
            <mxPoint x="650" y="-195.59000000000015" as="targetPoint" />
          </mxGeometry>
        </mxCell>
        <mxCell id="PUlFP6EYt6yUDdwabon2-93" value="" style="endArrow=none;dashed=1;html=1;fontSize=16;" edge="1" parent="1">
          <mxGeometry width="50" height="50" relative="1" as="geometry">
            <mxPoint x="550" y="-185.59000000000015" as="sourcePoint" />
            <mxPoint x="640" y="-185.59000000000015" as="targetPoint" />
          </mxGeometry>
        </mxCell>
        <mxCell id="PUlFP6EYt6yUDdwabon2-95" value="{{ Liquid Code}}" style="text;html=1;strokeColor=none;fillColor=none;align=center;verticalAlign=middle;whiteSpace=wrap;rounded=0;fontSize=16;" vertex="1" parent="1">
          <mxGeometry x="180" y="-385" width="150" height="20" as="geometry" />
        </mxCell>
      </root>
    </mxGraphModel>
  </diagram>
</mxfile>
